<svg xmlns="http://www.w3.org/2000/svg" width="380" height="150" viewBox="0 0 380 150"><rect x="1" y="1" width="378" height="148" rx="16" fill="#151923" stroke="#343B49"/><g transform="translate(18 36)" fill="#FF69B4"><circle cx="28" cy="8" r="9"/><path d="M12 43c0-11 7-18 16-18s16 7 16 18H12z"/><circle cx="4" cy="19" r="7"/><path d="M-9 43c0-8 5-13 13-13 5 0 9 2 12 6-2 2-4 5-4 7H-9z"/><circle cx="52" cy="19" r="7"/><path d="M44 36c3-4 7-6 12-6 8 0 13 5 13 13H51c0-2-1-5-3-7z"/></g><g font-family="Segoe UI,Arial,sans-serif"><text x="100" y="35" font-size="19" font-weight="800" fill="#FFFFFF">DX TECHIES</text><text x="100" y="57" font-size="13" fill="#D8DCE6">AI Crowd Monitoring</text><text x="100" y="75" font-size="11" fill="#AAB1C0">SIH Ideas • SIH26187</text><g font-size="10" font-weight="700"><rect x="100" y="91" width="70" height="25" rx="9" fill="#F3B4CE"/><text x="135" y="107" text-anchor="middle" fill="#3B2030">WEB APP</text><rect x="176" y="91" width="44" height="25" rx="9" fill="#FF69B4"/><text x="198" y="107" text-anchor="middle" fill="#FFFFFF">AI</text><rect x="226" y="91" width="83" height="25" rx="9" fill="#EFA2C5"/><text x="267" y="107" text-anchor="middle" fill="#3B2030">HACKATHON</text></g></g></svg>