<svg xmlns="http://www.w3.org/2000/svg" width="380" height="150" viewBox="0 0 380 150"><rect x="1" y="1" width="378" height="148" rx="16" fill="#151923" stroke="#343B49"/><g transform="translate(24 33)" stroke="#FF69B4" stroke-width="4" fill="none" stroke-linecap="round" stroke-linejoin="round"><rect x="2" y="8" width="48" height="38" rx="10"/><circle cx="16" cy="26" r="3" fill="#FF69B4" stroke="none"/><circle cx="36" cy="26" r="3" fill="#FF69B4" stroke="none"/><path d="M15 37h22M26 0v8"/><circle cx="26" cy="-3" r="2" fill="#FF69B4" stroke="none"/><path d="M-3 18v10M55 18v10"/></g><g font-family="Segoe UI,Arial,sans-serif"><text x="86" y="35" font-size="19" font-weight="800" fill="#FFFFFF">PR-COPILOT</text><text x="86" y="57" font-size="13" fill="#D8DCE6">AI-Powered PR Review Agent</text><text x="86" y="75" font-size="11" fill="#AAB1C0">GitHub • RAG • Automation</text><g font-size="10" font-weight="700"><rect x="86" y="91" width="44" height="25" rx="9" fill="#FF69B4"/><text x="108" y="107" text-anchor="middle" fill="#FFFFFF">AI</text><rect x="136" y="91" width="64" height="25" rx="9" fill="#EFA2C5"/><text x="168" y="107" text-anchor="middle" fill="#3B2030">GITHUB</text><rect x="206" y="91" width="95" height="25" rx="9" fill="#F3B4CE"/><text x="254" y="107" text-anchor="middle" fill="#3B2030">AUTOMATION</text></g></g></svg>