<svg xmlns="http://www.w3.org/2000/svg" width="700" height="270" viewBox="0 0 700 270"><defs><linearGradient id="b" x1="0" x2="1"><stop stop-color="#08090b"/><stop offset="1" stop-color="#17140b"/></linearGradient><pattern id="g" width="28" height="28" patternUnits="userSpaceOnUse"><path d="M28 0H0V28" fill="none" stroke="#c9a227" stroke-opacity=".07"/></pattern></defs><rect x="3" y="3" width="694" height="264" rx="18" fill="url(#b)" stroke="#c9a227" stroke-width="2.5"/><rect x="4" y="4" width="692" height="262" rx="17" fill="url(#g)"/><text x="22" y="34" font-family="monospace" font-size="15" font-weight="700" fill="#c9a227">2</text><text x="56" y="35" font-family="Segoe UI,Arial,sans-serif" font-size="18" font-weight="800" letter-spacing="1.5" fill="#eee">DX TECHIES</text><text x="24" y="94" font-family="Segoe UI,Arial,sans-serif" font-size="25" font-weight="800" fill="#fff">Crowd Monitoring System</text><text x="24" y="120" font-family="Segoe UI,Arial,sans-serif" font-size="15" fill="#bfc3c7">AI-based Surveillance using Drones</text><g font-family="Segoe UI,Arial,sans-serif" font-size="12" font-weight="700"><rect x="24" y="142" width="108" height="28" rx="9" fill="#c9a227"/><text x="78" y="161" text-anchor="middle" fill="#08090b">TensorFlow.js</text><rect x="141" y="142" width="105" height="28" rx="9" fill="#232019" stroke="#c9a227"/><text x="194" y="161" text-anchor="middle" fill="#f2f2f2">COCO-SSD</text><rect x="255" y="142" width="72" height="28" rx="9" fill="#232019" stroke="#c9a227"/><text x="291" y="161" text-anchor="middle" fill="#f2f2f2">AI</text></g><text x="24" y="198" font-family="Segoe UI,Arial,sans-serif" font-size="15" fill="#d8d8d8">Real-time crowd monitoring using drone &amp; CCTV feeds</text><text x="24" y="224" font-family="Segoe UI,Arial,sans-serif" font-size="15" fill="#d8d8d8">for smart and safe cities.</text><path d="M636 220h34l-8-8m8 8-8 8" fill="none" stroke="#c9a227" stroke-width="2"/></svg>